<svg id="Capa_1" data-name="Capa 1" xmlns="http://www.w3.org/2000/svg" viewBox="0 0 929.88 281.25"><defs><style>.cls-1{fill:#115c7a;}.cls-2{fill:#fff;}</style></defs><title>arista</title><polygon class="cls-1" points="15.08 281.25 0 262.42 245.75 15 364.75 137.33 333.08 169.33 230.46 63.83 15.08 281.25"/><polygon class="cls-2" points="63.08 266.25 48 247.42 293.75 0 412.75 122.33 381.08 154.33 278.46 48.83 63.08 266.25"/><path class="cls-2" d="M427.06,187.16h-5.85l-2.32-6H408.25l-2.2,6h-5.7l10.37-26.62h5.68Zm-9.9-10.53-3.67-9.88-3.6,9.88Z"/><path class="cls-2" d="M442.56,187.16v-2.89a7.43,7.43,0,0,1-2.77,2.43,7.76,7.76,0,0,1-3.62.89,7.08,7.08,0,0,1-3.49-.85,5,5,0,0,1-2.23-2.4,10.7,10.7,0,0,1-.69-4.27v-12.2h5.1v8.86a24.57,24.57,0,0,0,.28,5,2.72,2.72,0,0,0,1,1.45,3.15,3.15,0,0,0,1.89.54,4,4,0,0,0,2.34-.72,3.65,3.65,0,0,0,1.42-1.78,20.65,20.65,0,0,0,.38-5.2v-8.13h5.1v19.28Z"/><path class="cls-2" d="M461.43,167.87v4.07h-3.49v7.77a19.33,19.33,0,0,0,.1,2.75,1.12,1.12,0,0,0,.45.64,1.44,1.44,0,0,0,.86.25,6.6,6.6,0,0,0,2.05-.49l.44,4a10.14,10.14,0,0,1-4,.76,6.39,6.39,0,0,1-2.49-.46,3.63,3.63,0,0,1-1.63-1.2,4.73,4.73,0,0,1-.72-2,24.73,24.73,0,0,1-.16-3.6v-8.41h-2.34v-4.07h2.34V164l5.12-3v6.81Z"/><path class="cls-2" d="M463.79,177.24a10.43,10.43,0,0,1,1.25-4.92,8.6,8.6,0,0,1,3.55-3.63,10.53,10.53,0,0,1,5.13-1.25,9.63,9.63,0,0,1,7.17,2.84,9.82,9.82,0,0,1,2.8,7.18,9.94,9.94,0,0,1-2.82,7.25,9.54,9.54,0,0,1-7.11,2.88,11.2,11.2,0,0,1-5.06-1.2,8.22,8.22,0,0,1-3.66-3.51A11.71,11.71,0,0,1,463.79,177.24Zm5.23.27a6.39,6.39,0,0,0,1.36,4.39,4.45,4.45,0,0,0,6.71,0,6.48,6.48,0,0,0,1.35-4.43,6.36,6.36,0,0,0-1.35-4.36,4.45,4.45,0,0,0-6.71,0A6.39,6.39,0,0,0,469,177.51Z"/><path class="cls-2" d="M487.54,167.87h4.76v2.83a7.12,7.12,0,0,1,2.51-2.36,6.91,6.91,0,0,1,3.5-.91,7.35,7.35,0,0,1,5.7,2.63q2.34,2.63,2.34,7.34T504,184.91a7.35,7.35,0,0,1-5.72,2.68,6.5,6.5,0,0,1-2.9-.64,9.76,9.76,0,0,1-2.73-2.18v9.71h-5.1Zm5,9.31a7.43,7.43,0,0,0,1.29,4.8,3.94,3.94,0,0,0,3.14,1.55,3.69,3.69,0,0,0,3-1.43q1.18-1.43,1.18-4.68a7,7,0,0,0-1.22-4.5,3.76,3.76,0,0,0-3-1.47,3.91,3.91,0,0,0-3.1,1.44A6.43,6.43,0,0,0,492.59,177.19Z"/><path class="cls-2" d="M514.21,173.76l-4.63-.84a7.21,7.21,0,0,1,2.69-4.14,9.83,9.83,0,0,1,5.67-1.34,12.21,12.21,0,0,1,5.08.81,5.07,5.07,0,0,1,2.35,2.05,10.52,10.52,0,0,1,.68,4.57l-.05,6a20.68,20.68,0,0,0,.25,3.75,10.94,10.94,0,0,0,.92,2.59h-5q-.2-.51-.49-1.51-.13-.45-.18-.6a9.2,9.2,0,0,1-2.8,1.91,8,8,0,0,1-3.18.64,6.57,6.57,0,0,1-4.69-1.62,5.37,5.37,0,0,1-1.72-4.09,5.48,5.48,0,0,1,.78-2.91,5.1,5.1,0,0,1,2.19-2,17.1,17.1,0,0,1,4.06-1.19,27.8,27.8,0,0,0,5-1.25v-.51a2.64,2.64,0,0,0-.73-2.1,4.35,4.35,0,0,0-2.74-.63,3.65,3.65,0,0,0-2.12.54A3.72,3.72,0,0,0,514.21,173.76ZM521,177.9a31.89,31.89,0,0,1-3.1.78,9.35,9.35,0,0,0-2.78.89,2.13,2.13,0,0,0-1,1.8,2.5,2.5,0,0,0,.8,1.85,2.79,2.79,0,0,0,2,.78,4.42,4.42,0,0,0,2.63-.91,3.2,3.2,0,0,0,1.22-1.69,10.08,10.08,0,0,0,.2-2.49Z"/><path class="cls-2" d="M536,187.16h-5.1V167.87h4.74v2.74a8.24,8.24,0,0,1,2.19-2.56,4,4,0,0,1,2.21-.62,6.48,6.48,0,0,1,3.36,1l-1.58,4.45a4.48,4.48,0,0,0-2.4-.84,2.83,2.83,0,0,0-1.82.59,4,4,0,0,0-1.17,2.13,30.31,30.31,0,0,0-.43,6.46Z"/><path class="cls-2" d="M554.39,167.87v4.07h-3.49v7.77a19.33,19.33,0,0,0,.1,2.75,1.12,1.12,0,0,0,.45.64,1.44,1.44,0,0,0,.86.25,6.6,6.6,0,0,0,2.05-.49l.44,4a10.14,10.14,0,0,1-4,.76,6.39,6.39,0,0,1-2.49-.46,3.63,3.63,0,0,1-1.63-1.2,4.73,4.73,0,0,1-.72-2,24.73,24.73,0,0,1-.16-3.6v-8.41h-2.34v-4.07h2.34V164l5.12-3v6.81Z"/><path class="cls-2" d="M556.14,181.65l5.12-.78a3.75,3.75,0,0,0,1.33,2.26,4.48,4.48,0,0,0,2.8.77,5,5,0,0,0,3-.73,1.62,1.62,0,0,0,.67-1.36,1.34,1.34,0,0,0-.36-1,4.07,4.07,0,0,0-1.71-.67q-6.17-1.36-7.83-2.49a5,5,0,0,1-2.29-4.34,5.35,5.35,0,0,1,2-4.21q2-1.71,6.14-1.71,4,0,5.88,1.29a6.59,6.59,0,0,1,2.65,3.81l-4.81.89a3,3,0,0,0-1.17-1.72,4.28,4.28,0,0,0-2.46-.6,5.54,5.54,0,0,0-2.89.56,1.21,1.21,0,0,0-.58,1,1.13,1.13,0,0,0,.51.93,19.14,19.14,0,0,0,4.77,1.43,14.19,14.19,0,0,1,5.69,2.27,4.72,4.72,0,0,1,1.6,3.79,5.82,5.82,0,0,1-2.22,4.56q-2.22,1.91-6.55,1.91a10.76,10.76,0,0,1-6.24-1.6A7.36,7.36,0,0,1,556.14,181.65Z"/><path class="cls-2" d="M588.82,187.16V160.54h5.37v26.62Z"/><path class="cls-2" d="M598.9,167.87h4.7v2.63a7.57,7.57,0,0,1,6-3.07,6.47,6.47,0,0,1,3.21.76,5.86,5.86,0,0,1,2.23,2.31,8.91,8.91,0,0,1,2.74-2.31,6.73,6.73,0,0,1,3.14-.76,7,7,0,0,1,3.6.86,5.28,5.28,0,0,1,2.2,2.53,11,11,0,0,1,.53,4v12.33h-5.1v-11a8.2,8.2,0,0,0-.53-3.7,2.42,2.42,0,0,0-2.18-1.09,3.48,3.48,0,0,0-2,.65,3.63,3.63,0,0,0-1.36,1.92,13.78,13.78,0,0,0-.42,4v9.26h-5.1V176.59a14.66,14.66,0,0,0-.27-3.63,2.32,2.32,0,0,0-.84-1.22,2.67,2.67,0,0,0-1.55-.4,3.72,3.72,0,0,0-2.12.64,3.49,3.49,0,0,0-1.35,1.83,13.63,13.63,0,0,0-.41,4v9.37h-5.1Z"/><path class="cls-2" d="M632.2,167.87H637v2.83a7.12,7.12,0,0,1,2.51-2.36,6.91,6.91,0,0,1,3.5-.91,7.35,7.35,0,0,1,5.7,2.63q2.34,2.63,2.34,7.34t-2.36,7.51a7.35,7.35,0,0,1-5.72,2.68A6.5,6.5,0,0,1,640,187a9.76,9.76,0,0,1-2.73-2.18v9.71h-5.1Zm5,9.31a7.43,7.43,0,0,0,1.29,4.8,3.94,3.94,0,0,0,3.14,1.55,3.69,3.69,0,0,0,3-1.43q1.18-1.43,1.18-4.68a7,7,0,0,0-1.22-4.5,3.76,3.76,0,0,0-3-1.47,3.91,3.91,0,0,0-3.1,1.44A6.43,6.43,0,0,0,637.25,177.19Z"/><path class="cls-2" d="M653.88,177.24a10.43,10.43,0,0,1,1.25-4.92,8.6,8.6,0,0,1,3.55-3.63,10.53,10.53,0,0,1,5.13-1.25,9.63,9.63,0,0,1,7.17,2.84,9.82,9.82,0,0,1,2.8,7.18,9.94,9.94,0,0,1-2.82,7.25,9.54,9.54,0,0,1-7.11,2.88,11.2,11.2,0,0,1-5.06-1.2,8.22,8.22,0,0,1-3.66-3.51A11.71,11.71,0,0,1,653.88,177.24Zm5.23.27a6.39,6.39,0,0,0,1.36,4.39,4.45,4.45,0,0,0,6.71,0,6.48,6.48,0,0,0,1.35-4.43,6.36,6.36,0,0,0-1.35-4.36,4.45,4.45,0,0,0-6.71,0A6.39,6.39,0,0,0,659.11,177.51Z"/><path class="cls-2" d="M682.66,187.16h-5.1V167.87h4.74v2.74a8.24,8.24,0,0,1,2.19-2.56,4,4,0,0,1,2.21-.62,6.48,6.48,0,0,1,3.36,1l-1.58,4.45a4.48,4.48,0,0,0-2.4-.84,2.83,2.83,0,0,0-1.82.59,4,4,0,0,0-1.17,2.13,30.31,30.31,0,0,0-.43,6.46Z"/><path class="cls-2" d="M701.09,167.87v4.07H697.6v7.77a19.33,19.33,0,0,0,.1,2.75,1.12,1.12,0,0,0,.45.64,1.44,1.44,0,0,0,.86.25,6.6,6.6,0,0,0,2.05-.49l.44,4a10.14,10.14,0,0,1-4,.76,6.39,6.39,0,0,1-2.49-.46,3.63,3.63,0,0,1-1.63-1.2,4.73,4.73,0,0,1-.72-2,24.73,24.73,0,0,1-.16-3.6v-8.41h-2.34v-4.07h2.34V164l5.12-3v6.81Z"/><path class="cls-2" d="M715.79,181l5.08.85a8.34,8.34,0,0,1-3.1,4.26,9.09,9.09,0,0,1-5.29,1.46q-5,0-7.44-3.29a11,11,0,0,1-1.91-6.65,10.65,10.65,0,0,1,2.51-7.51,8.25,8.25,0,0,1,6.34-2.71,8.56,8.56,0,0,1,6.79,2.84q2.49,2.84,2.38,8.71H708.37a5.16,5.16,0,0,0,1.23,3.53,3.86,3.86,0,0,0,2.94,1.26,3.12,3.12,0,0,0,2-.65A4,4,0,0,0,715.79,181Zm.29-5.16a4.91,4.91,0,0,0-1.14-3.37,3.68,3.68,0,0,0-5.41.06,4.71,4.71,0,0,0-1.07,3.3Z"/><path class="cls-2" d="M730.19,187.16h-5.1V167.87h4.74v2.74a8.24,8.24,0,0,1,2.19-2.56,4,4,0,0,1,2.21-.62,6.48,6.48,0,0,1,3.36,1L736,172.85a4.48,4.48,0,0,0-2.4-.84,2.83,2.83,0,0,0-1.82.59,4,4,0,0,0-1.17,2.13,30.31,30.31,0,0,0-.43,6.46Z"/><path class="cls-2" d="M753.93,187.16l-6.36-26.62h5.5l4,18.28L762,160.54h6.39L773,179.13l4.09-18.59h5.41L776,187.16h-5.7l-5.3-19.9-5.28,19.9Z"/><path class="cls-2" d="M790.29,160.54v9.79a7.65,7.65,0,0,1,9.08-2.23,5.19,5.19,0,0,1,2.13,1.67,6.06,6.06,0,0,1,1,2.25,20.13,20.13,0,0,1,.26,3.83v11.31h-5.1V177a15.08,15.08,0,0,0-.29-3.85,2.53,2.53,0,0,0-1-1.3,3.3,3.3,0,0,0-1.84-.48,4.23,4.23,0,0,0-2.27.62,3.56,3.56,0,0,0-1.46,1.86,11.12,11.12,0,0,0-.46,3.68v9.66h-5.1V160.54Z"/><path class="cls-2" d="M806.75,177.24a10.43,10.43,0,0,1,1.25-4.92,8.6,8.6,0,0,1,3.55-3.63,10.53,10.53,0,0,1,5.13-1.25,9.63,9.63,0,0,1,7.17,2.84,9.82,9.82,0,0,1,2.8,7.18,9.94,9.94,0,0,1-2.82,7.25,9.54,9.54,0,0,1-7.11,2.88,11.2,11.2,0,0,1-5.06-1.2,8.22,8.22,0,0,1-3.66-3.51A11.71,11.71,0,0,1,806.75,177.24Zm5.23.27a6.39,6.39,0,0,0,1.36,4.39,4.45,4.45,0,0,0,6.71,0,6.48,6.48,0,0,0,1.35-4.43,6.36,6.36,0,0,0-1.35-4.36,4.45,4.45,0,0,0-6.71,0A6.39,6.39,0,0,0,812,177.51Z"/><path class="cls-2" d="M830.64,187.16V160.54h5.1v26.62Z"/><path class="cls-2" d="M852.14,181l5.08.85a8.34,8.34,0,0,1-3.1,4.26,9.09,9.09,0,0,1-5.29,1.46q-5,0-7.44-3.29a11,11,0,0,1-1.91-6.65,10.65,10.65,0,0,1,2.51-7.51,8.25,8.25,0,0,1,6.34-2.71,8.56,8.56,0,0,1,6.79,2.84q2.49,2.84,2.38,8.71H844.71a5.16,5.16,0,0,0,1.23,3.53,3.86,3.86,0,0,0,2.94,1.26,3.12,3.12,0,0,0,2-.65A4,4,0,0,0,852.14,181Zm.29-5.16a4.91,4.91,0,0,0-1.14-3.37,3.68,3.68,0,0,0-5.41.06,4.71,4.71,0,0,0-1.07,3.3Z"/><path class="cls-2" d="M859.86,181.65l5.12-.78a3.75,3.75,0,0,0,1.33,2.26,4.48,4.48,0,0,0,2.8.77,5,5,0,0,0,3-.73,1.62,1.62,0,0,0,.67-1.36,1.34,1.34,0,0,0-.36-1,4.07,4.07,0,0,0-1.71-.67q-6.17-1.36-7.83-2.49a5,5,0,0,1-2.29-4.34,5.35,5.35,0,0,1,2-4.21q2-1.71,6.14-1.71,4,0,5.88,1.29a6.59,6.59,0,0,1,2.65,3.81l-4.81.89a3,3,0,0,0-1.17-1.72,4.28,4.28,0,0,0-2.46-.6,5.54,5.54,0,0,0-2.89.56,1.21,1.21,0,0,0-.58,1,1.13,1.13,0,0,0,.51.93,19.14,19.14,0,0,0,4.77,1.43,14.19,14.19,0,0,1,5.69,2.27,4.72,4.72,0,0,1,1.6,3.79,5.82,5.82,0,0,1-2.22,4.56q-2.22,1.91-6.55,1.91a10.76,10.76,0,0,1-6.24-1.6A7.36,7.36,0,0,1,859.86,181.65Z"/><path class="cls-2" d="M886.15,173.76l-4.63-.84a7.21,7.21,0,0,1,2.69-4.14,9.83,9.83,0,0,1,5.67-1.34,12.21,12.21,0,0,1,5.08.81,5.07,5.07,0,0,1,2.35,2.05,10.52,10.52,0,0,1,.68,4.57l-.05,6a20.68,20.68,0,0,0,.25,3.75,10.94,10.94,0,0,0,.92,2.59h-5q-.2-.51-.49-1.51-.13-.45-.18-.6a9.2,9.2,0,0,1-2.8,1.91,8,8,0,0,1-3.18.64,6.57,6.57,0,0,1-4.69-1.62,5.37,5.37,0,0,1-1.72-4.09,5.48,5.48,0,0,1,.78-2.91,5.1,5.1,0,0,1,2.19-2,17.1,17.1,0,0,1,4.06-1.19,27.8,27.8,0,0,0,5-1.25v-.51a2.64,2.64,0,0,0-.73-2.1,4.35,4.35,0,0,0-2.74-.63,3.65,3.65,0,0,0-2.12.54A3.72,3.72,0,0,0,886.15,173.76ZM893,177.9a31.89,31.89,0,0,1-3.1.78,9.35,9.35,0,0,0-2.78.89,2.13,2.13,0,0,0-1,1.8,2.5,2.5,0,0,0,.8,1.85,2.79,2.79,0,0,0,2,.78,4.42,4.42,0,0,0,2.63-.91,3.2,3.2,0,0,0,1.22-1.69,10.08,10.08,0,0,0,.2-2.49Z"/><path class="cls-2" d="M903,187.16V160.54h5.1v26.62Z"/><path class="cls-2" d="M924.51,181l5.08.85a8.34,8.34,0,0,1-3.1,4.26,9.09,9.09,0,0,1-5.29,1.46q-5,0-7.44-3.29a11,11,0,0,1-1.91-6.65,10.65,10.65,0,0,1,2.51-7.51,8.25,8.25,0,0,1,6.34-2.71,8.56,8.56,0,0,1,6.79,2.84q2.49,2.84,2.38,8.71H917.09a5.16,5.16,0,0,0,1.23,3.53,3.86,3.86,0,0,0,2.94,1.26,3.12,3.12,0,0,0,2-.65A4,4,0,0,0,924.51,181Zm.29-5.16a4.91,4.91,0,0,0-1.14-3.37,3.68,3.68,0,0,0-5.41.06,4.71,4.71,0,0,0-1.07,3.3Z"/><path class="cls-2" d="M540.06,138.25V62.75H557v75.5Z"/><path class="cls-2" d="M575.34,138.25V127.1h77.93q11.21,0,11.21-7v-9.54q0-7-11.21-7H600.55a54.14,54.14,0,0,1-13-1.34,25.67,25.67,0,0,1-8.73-3.76,14.51,14.51,0,0,1-4.9-5.74,17.56,17.56,0,0,1-1.53-7.4V81a17.57,17.57,0,0,1,1.53-7.4,14.53,14.53,0,0,1,4.9-5.74,25.67,25.67,0,0,1,8.73-3.76,54.25,54.25,0,0,1,13-1.34h75.89V73.9H600.55q-11.21,0-11.21,7v4.61q0,7,11.21,7h52.72a54.25,54.25,0,0,1,13,1.34A25.68,25.68,0,0,1,675,97.55a14.54,14.54,0,0,1,4.91,5.74,17.57,17.57,0,0,1,1.52,7.4V120a17.56,17.56,0,0,1-1.52,7.4,14.53,14.53,0,0,1-4.91,5.74,25.6,25.6,0,0,1-8.72,3.76,54.14,54.14,0,0,1-13,1.34Z"/><path class="cls-2" d="M734,138.25V73.9H687V62.75H796.65V73.9H750.94v64.35Z"/><path class="cls-2" d="M888.21,138.25,842,77.44l-47,60.81H776.15l59.6-75.5h12.35l59.21,75.5Z"/><rect class="cls-2" x="530.49" y="120.75" width="3.57" height="4.19"/><polygon class="cls-2" points="756.94 120.75 756.94 124.94 779.01 124.94 782.32 120.75 756.94 120.75"/><rect class="cls-2" x="446.39" y="113.36" width="56.07" height="1.39"/><rect class="cls-2" x="446.39" y="120.75" width="56.07" height="4.19"/><path class="cls-2" d="M653.27,121.1a17.59,17.59,0,0,0,3.83-.35H563v4.19h6.34V121.1Z"/><polygon class="cls-2" points="816.1 120.75 812.87 124.94 870.55 124.94 867.37 120.75 816.1 120.75"/><path class="cls-2" d="M687.39,120.75a25,25,0,0,1-.46,4.19H728v-4.19Z"/><rect class="cls-2" x="530.49" y="114.75" width="3.57" height="6"/><path class="cls-2" d="M657.1,120.75a5.11,5.11,0,0,0,1.37-.47s0-.09,0-.15v-5.37H563v6Z"/><polygon class="cls-2" points="862.81 114.75 820.74 114.75 816.1 120.75 867.37 120.75 862.81 114.75"/><polygon class="cls-2" points="782.32 120.75 787.06 114.75 756.94 114.75 756.94 120.75 782.32 120.75"/><path class="cls-2" d="M728,114.75h-40.6V120c0,.25,0,.49,0,.73H728Z"/><rect class="cls-2" x="446.39" y="114.75" width="56.07" height="6"/><path class="cls-2" d="M686.93,124.94a22.36,22.36,0,0,1-1.59,5c-.26.56-.56,1.11-.87,1.64H728v-6.62Z"/><rect class="cls-2" x="563" y="124.94" width="6.34" height="6.63"/><polygon class="cls-2" points="870.55 124.94 812.87 124.94 807.75 131.56 875.59 131.56 870.55 124.94"/><polygon class="cls-2" points="756.94 124.94 756.94 131.56 773.78 131.56 779.01 124.94 756.94 124.94"/><rect class="cls-2" x="530.49" y="124.94" width="3.57" height="6.63"/><rect class="cls-2" x="446.39" y="124.94" width="56.07" height="6.63"/><rect class="cls-2" x="446.17" y="114.75" width="0.22" height="6"/><rect class="cls-2" x="446.17" y="124.94" width="0.22" height="6.63"/><path class="cls-2" d="M518.3,68.37a24.32,24.32,0,0,0-8.4-3.73,50.76,50.76,0,0,0-12.51-1.33H424.08v74.9h16.31V107.36h68.07v30.85h16V109c0-6.93-15.65-8.22-15.65-8.22s15.65-.75,15.65-14V81.4A17.8,17.8,0,0,0,523,74.06,14.27,14.27,0,0,0,518.3,68.37ZM508.19,86.83q0,6.92-10.79,6.91h-57V74.38h57q10.78,0,10.79,6.92Z"/><path class="cls-2" d="M360.18.86a7.48,7.48,0,0,0-2.77,1.46,5.49,5.49,0,0,0-1.56,2.23,8.12,8.12,0,0,0-.49,2.87V22.58a8.12,8.12,0,0,0,.49,2.87,5.49,5.49,0,0,0,1.56,2.23,7.47,7.47,0,0,0,2.77,1.46,14.19,14.19,0,0,0,4.12.52h22.92V25.33H364.31q-3.56,0-3.56-2.71V7.38q0-2.71,3.56-2.71h22.92V.34H364.31A14.22,14.22,0,0,0,360.18.86Z"/><path class="cls-2" d="M426.17,2.32A7.49,7.49,0,0,0,423.4.86a14.22,14.22,0,0,0-4.12-.52H400.48a14.22,14.22,0,0,0-4.12.52,7.48,7.48,0,0,0-2.77,1.46A5.49,5.49,0,0,0,392,4.55a8.12,8.12,0,0,0-.49,2.87V22.58a8.12,8.12,0,0,0,.49,2.87,5.49,5.49,0,0,0,1.56,2.23,7.47,7.47,0,0,0,2.77,1.46,14.19,14.19,0,0,0,4.12.52h18.79a14.19,14.19,0,0,0,4.12-.52,7.47,7.47,0,0,0,2.77-1.46,5.49,5.49,0,0,0,1.56-2.23,8.12,8.12,0,0,0,.49-2.87V7.42a8.12,8.12,0,0,0-.49-2.87A5.49,5.49,0,0,0,426.17,2.32Zm-3.33,20.3q0,2.71-3.56,2.71H400.48q-3.56,0-3.56-2.71V7.38q0-2.71,3.56-2.71h18.79q3.56,0,3.56,2.71Z"/><polygon class="cls-2" points="455.17 24.29 438.28 0.34 433.26 0.34 433.26 29.66 438.24 29.66 438.24 9.17 452.75 29.66 457.15 29.66 471.62 9.13 471.62 29.66 476.6 29.66 476.6 0.34 471.99 0.34 455.17 24.29"/><polygon class="cls-2" points="481.85 29.66 511.11 29.66 511.11 25.33 487.23 25.33 487.23 16.33 503.9 16.33 503.9 12 487.23 12 487.23 4.67 511.11 4.67 511.11 0.34 481.85 0.34 481.85 29.66"/><path class="cls-2" d="M546.74,2.32A7.48,7.48,0,0,0,544,.86a14.22,14.22,0,0,0-4.12-.52H515.68V29.66h5.38V17.58H543.5V29.66h5.29V18.22c0-2.71-5.16-3.22-5.16-3.22s5.16-.29,5.16-5.5V7.42a8.11,8.11,0,0,0-.49-2.87A5.48,5.48,0,0,0,546.74,2.32Zm-3.33,7.23q0,2.71-3.56,2.71h-18.8V4.67h18.8q3.56,0,3.56,2.71Z"/><path class="cls-2" d="M557.72.86a7.48,7.48,0,0,0-2.77,1.46,5.49,5.49,0,0,0-1.56,2.23,8.14,8.14,0,0,0-.48,2.87V22.58a8.14,8.14,0,0,0,.48,2.87,5.48,5.48,0,0,0,1.56,2.23,7.46,7.46,0,0,0,2.77,1.46,14.19,14.19,0,0,0,4.12.52h22.92V25.33H561.84q-3.56,0-3.56-2.71V7.38q0-2.71,3.56-2.71h22.92V.34H561.84A14.22,14.22,0,0,0,557.72.86Z"/><rect class="cls-2" x="589.49" y="0.34" width="5.38" height="29.32"/><polygon class="cls-2" points="616.61 0.34 597.69 29.66 603.67 29.66 618.59 6.05 633.26 29.66 639.33 29.66 620.53 0.34 616.61 0.34"/><polygon class="cls-2" points="647.37 0.34 641.95 0.34 641.95 29.66 670.45 29.66 670.45 25.33 647.37 25.33 647.37 0.34"/><rect class="cls-2" x="674.41" y="0.34" width="5.38" height="29.32"/><polygon class="cls-2" points="684.55 5.09 713.33 5.09 684.55 25.91 684.55 29.66 722.79 29.66 722.79 24.91 693.89 24.91 722.79 4.09 722.79 0.34 684.55 0.34 684.55 5.09"/><polygon class="cls-2" points="743.21 0.34 724.29 29.66 730.27 29.66 745.18 6.05 759.86 29.66 765.92 29.66 747.13 0.34 743.21 0.34"/><path class="cls-2" d="M802.9,2.51A7.8,7.8,0,0,0,799.67.88a19.89,19.89,0,0,0-5.05-.54H768.55V29.66h26.07a19.89,19.89,0,0,0,5.05-.54,8.1,8.1,0,0,0,3.23-1.58,5.66,5.66,0,0,0,1.72-2.6,11.9,11.9,0,0,0,.5-3.64V9a12.84,12.84,0,0,0-.5-3.79A5.91,5.91,0,0,0,802.9,2.51Zm-3.15,18.74a6.78,6.78,0,0,1-.24,2,2.46,2.46,0,0,1-.83,1.25,3.79,3.79,0,0,1-1.58.67,12.29,12.29,0,0,1-2.49.21h-20.7V4.67h20.7a12.36,12.36,0,0,1,2.49.21,3.5,3.5,0,0,1,1.58.71,2.71,2.71,0,0,1,.83,1.33A7.6,7.6,0,0,1,799.75,9Z"/><path class="cls-2" d="M844.6,2.32A7.47,7.47,0,0,0,841.83.86a14.21,14.21,0,0,0-4.12-.52h-18.8a14.22,14.22,0,0,0-4.12.52A7.48,7.48,0,0,0,812,2.32a5.49,5.49,0,0,0-1.56,2.23A8.14,8.14,0,0,0,810,7.42V22.58a8.14,8.14,0,0,0,.48,2.87A5.48,5.48,0,0,0,812,27.68a7.46,7.46,0,0,0,2.77,1.46,14.19,14.19,0,0,0,4.12.52h18.8a14.18,14.18,0,0,0,4.12-.52,7.46,7.46,0,0,0,2.77-1.46,5.49,5.49,0,0,0,1.56-2.23,8.1,8.1,0,0,0,.49-2.87V7.42a8.11,8.11,0,0,0-.49-2.87A5.5,5.5,0,0,0,844.6,2.32Zm-3.34,20.3q0,2.71-3.56,2.71h-18.8q-3.56,0-3.56-2.71V7.38q0-2.71,3.56-2.71h18.8q3.55,0,3.56,2.71Z"/><path class="cls-2" d="M882.75,2.32A7.48,7.48,0,0,0,880,.86a14.22,14.22,0,0,0-4.12-.52H851.69V29.66h5.38V17.58h22.44V29.66h5.29V18.22c0-2.71-5.16-3.22-5.16-3.22s5.16-.29,5.16-5.5V7.42a8.11,8.11,0,0,0-.49-2.87A5.48,5.48,0,0,0,882.75,2.32Zm-3.33,7.23q0,2.71-3.56,2.71h-18.8V4.67h18.8q3.56,0,3.56,2.71Z"/><polygon class="cls-2" points="909.33 0.34 905.41 0.34 886.49 29.66 892.47 29.66 907.39 6.05 922.06 29.66 928.13 29.66 909.33 0.34"/></svg>